<?xml version="1.0" encoding="utf-8"?>
<!-- Generator: Adobe Illustrator 22.0.1, SVG Export Plug-In . SVG Version: 6.00 Build 0)  -->
<svg version="1.1" id="Layer_1" xmlns="http://www.w3.org/2000/svg" xmlns:xlink="http://www.w3.org/1999/xlink" x="0px" y="0px"
	 viewBox="0 0 86.8 81.8" style="enable-background:new 0 0 86.8 81.8;" xml:space="preserve">
<style type="text/css">
	.st0{fill:#091E33;}
</style>
<g>
	<path class="st0" d="M54,4.6L11,26.2c-1.2,0.6-1.7,2.1-1.1,3.3c0.4,0.9,1.3,1.4,2.2,1.4c0.4,0,0.7-0.1,1.1-0.3l33.4-16.7
		C49.7,9.6,52.1,6.7,54,4.6z"/>
	<path class="st0" d="M35.2,33.1L2.4,49.4c-1.2,0.6-1.6,2-1.1,3.1c0.4,0.8,1.2,1.3,2.1,1.3c0.4,0,0.7-0.1,1-0.2l28.1-14
		C33.3,37.4,34.3,35.1,35.2,33.1z"/>
	<path class="st0" d="M33.2,54.7L3.8,69.3c-1.2,0.6-1.6,2-1.1,3.1c0.4,0.8,1.2,1.3,2.1,1.3c0.4,0,0.7-0.1,1-0.2l30.1-14.9
		C34.8,57.1,33.9,55.7,33.2,54.7z"/>
	<path class="st0" d="M39.2,63.7l-18.4,9.6c-1.2,0.6-1.6,2-1,3.1c0.4,0.8,1.2,1.3,2.1,1.3c0.4,0,0.7-0.1,1-0.2l19-9.9
		C40.8,66.1,39.9,64.7,39.2,63.7z"/>
	<path class="st0" d="M60.8,10.3c-0.8,0.9-1.7,2-2.7,3.3L65,21c1-1.1,1.9-2.1,2.9-3.2L60.8,10.3z"/>
	<path class="st0" d="M53.9,19.3l8,4.9c1-1,2.1-2.1,3.1-3.1l-8.6-5.2C55.6,16.9,54.8,18,53.9,19.3z"/>
	<path class="st0" d="M56.5,29.3c1-0.9,2.1-1.9,3.2-2.9l-3.9-5.5l-1.5-2.1c-0.8,1.1-1.7,2.4-2.6,3.7L56.5,29.3z"/>
	<path class="st0" d="M53.3,32.2c0.9-0.8,1.8-1.7,2.8-2.5l-5.4-5.8c-0.5,0.8-1.1,1.6-1.6,2.4c-0.3,0.4-0.5,0.8-0.8,1.3l4.7,5
		C53,32.4,53.2,32.3,53.3,32.2z"/>
	<path class="st0" d="M66.4,34.7c-7.1,0-12.9,4-12.9,8.9s5.8,8.9,12.9,8.9s12.9-4,12.9-8.9S73.5,34.7,66.4,34.7z M66.4,49.9
		c-5.2,0-9.4-2.8-9.4-6.3s4.2-6.3,9.4-6.3s9.4,2.8,9.4,6.3S71.6,49.9,66.4,49.9z"/>
	<path class="st0" d="M85.6,43.5c0-0.2,0-0.4,0-0.6l-0.1-0.1c-0.5-7.4-8.8-13-19.2-13c-0.5,0-1,0-1.4,0c4.3-4.2,8.6-8.7,11.7-13.5
		c0.2-0.2,0.3-0.5,0.3-0.8c0.4-3.1-1.7-6.3-3.6-8.4C70.5,3.8,66,0.6,63.1,0.7c-1.2,0.1-4,0.2-15.3,16.2l-13.7,6.8
		c-1.3,0.6-1.8,2.2-1.1,3.4c0.4,0.9,1.3,1.4,2.3,1.4c0.4,0,0.8-0.1,1.1-0.3l5.7-2.8c-2.8,4.8-6.3,12.1-7.5,18c0,0-0.1,0-0.1,0.1
		l-9.9,5c-1.2,0.6-1.6,2-1,3.1c0.4,0.8,1.2,1.3,2.1,1.3c0.4,0,0.7-0.1,1-0.2l7.7-3.8c0.1,0.7,0.3,1.3,0.6,1.8
		c2.2,3.7,20.1,28.5,20.9,29.6c0.3,0.4,0.8,0.7,1.4,0.8c0.1,0,0.1,0,0.2,0c0.5,0,1-0.3,1.3-0.5s1.1-0.6,1-0.9c-0.2-0.4-2.5-4-2.5-4
		c-4.7-6.5-17.2-24-18.9-26.9S42,32.5,47.1,25C57.4,9.7,62.3,5,63.4,4.7c1.1,0,4.4,2,7.1,5.1c1.7,1.9,2.6,3.7,2.7,5
		c-3.9,5.8-9.8,11.5-15.2,16.4c-5.3,1.8-9.2,5.3-10.4,9.6c-2.8,2.8-4.2,5-4.2,6.9c0,0.4,0.1,0.7,0.3,1l16.4,25.5c0,0,1.9,3,2.3,3.1
		s0.9-0.3,1.4-1.4c0.5-1.1,0.8-1.7,0.3-2.4l-6.6-10.2c2.6,1,5.6,1.5,8.7,1.5c10.7,0,19.3-6.1,19.3-13.8c0-2,0-3.9,0.1-5.9
		C85.6,44.5,85.6,44,85.6,43.5z M82.9,43.6c0,6.1-7.5,11.1-16.6,11.1c-8.6,0-15.5-4.4-16.5-9.9l0,0c0-0.4,0-0.7,0-1.1
		c0-0.1,0.1-0.3,0.1-0.4c0-0.2,0-0.4,0.1-0.6c0-0.3,0.1-0.6,0.2-0.9v-0.1c0-0.1,0.1-0.2,0.1-0.4c0.1-0.2,0.2-0.4,0.2-0.6
		c0.1-0.1,0.1-0.2,0.2-0.4c0.1-0.2,0.2-0.4,0.4-0.7c0.1-0.1,0.1-0.2,0.2-0.3c0.2-0.3,0.4-0.6,0.6-0.9c0.1-0.1,0.2-0.2,0.3-0.3
		c0.2-0.2,0.3-0.4,0.5-0.5c0.1-0.1,0.2-0.2,0.4-0.4c0.2-0.1,0.3-0.3,0.5-0.4c0.1-0.1,0.3-0.2,0.4-0.4c0.2-0.1,0.3-0.3,0.5-0.4
		c0.2-0.1,0.3-0.2,0.5-0.3s0.4-0.2,0.6-0.3c0.3-0.2,0.7-0.4,1-0.6c0.2-0.1,0.4-0.2,0.5-0.3c0.2-0.1,0.5-0.2,0.7-0.3s0.3-0.1,0.5-0.2
		c0.2-0.1,0.5-0.2,0.7-0.3s0.4-0.1,0.5-0.2c0.3-0.1,0.5-0.2,0.8-0.2c0.2,0,0.4-0.1,0.5-0.1c0.3-0.1,0.6-0.1,0.8-0.2
		c1.5-0.3,3.1-0.5,4.7-0.5C75.5,32.5,82.9,37.5,82.9,43.6z M66.2,62.1c-5,0-9.5-1.5-12.5-3.9c-0.2-0.1-0.3-0.3-0.5-0.4
		c-0.2-0.2-0.4-0.3-0.5-0.5c-0.2-0.2-0.4-0.4-0.6-0.6c-0.1-0.1-0.2-0.2-0.2-0.3c-0.2-0.2-0.4-0.5-0.5-0.7c0-0.1-0.1-0.1-0.1-0.2
		c-0.2-0.3-0.3-0.6-0.5-0.8c0,0,0-0.1-0.1-0.1c-0.1-0.3-0.3-0.6-0.4-0.9v-0.1c-0.1-0.3-0.2-0.6-0.3-1v-0.1c-0.1-0.3-0.1-0.6-0.1-1
		c0-0.2,0-0.4,0-0.5v-0.3c3.3,4,9.4,6.7,16.5,6.7c6.9,0,12.8-2.5,16.2-6.3C82.6,57.1,75.2,62.1,66.2,62.1z"/>
</g>
</svg>
